<svg xmlns='http://www.w3.org/2000/svg'>
	<symbol id='sort' viewBox='0 0 320 512'><path d='M41 288h238c21.4 0 32.1 25.9 17 41L177 448c-9.4 9.4-24.6 9.4-33.9 0L24 329c-15.1-15.1-4.4-41 17-41zm255-105L177 64c-9.4-9.4-24.6-9.4-33.9 0L24 183c-15.1 15.1-4.4 41 17 41h238c21.4 0 32.1-25.9 17-41z'/></symbol>
	<symbol id='sort-asc' viewBox='0 0 320 512'><path d='M41 288h238c21.4 0 32.1 25.9 17 41L177 448c-9.4 9.4-24.6 9.4-33.9 0L24 329c-15.1-15.1-4.4-41 17-41z'/></symbol>
	<symbol id='sort-desc' viewBox='0 0 320 512'><path d='M279 224H41c-21.4 0-32.1-25.9-17-41L143 64c9.4-9.4 24.6-9.4 33.9 0l119 119c15.2 15.1 4.5 41-16.9 41z'/></symbol>
	<symbol id='warning' viewBox='0 0 512 512'><path d='M504.051 458.318L264.66 43.682c-1.924-3.333-5.292-5-8.66-5s-6.736 1.667-8.66 5L7.949 458.318c-3.849 6.667.962 15 8.66 15H495.39c7.699 0 12.51-8.333 8.661-15zm-483.978 3L256 52.682l235.927 408.637H20.073z'/><path d='M246 179.24c-29.57 16.96-8.35 111.48 8 168.43.42 1.45 1.21 2.18 2 2.18s1.58-.73 2-2.17c12.99-44.7 40.8-150.5 8-168.44-3.28-1.79-6.69-2.74-10.12-2.74-3.31 0-6.64.88-9.88 2.74zm23.25 72.89c-2.42 18.53-6.84 40.26-13.18 64.84-5.5-21.84-10.82-46.81-13.35-69.62-5.16-46.41 4.06-57.02 8.25-59.43 1.67-.96 3.27-1.42 4.91-1.42 1.69 0 3.48.51 5.32 1.52 4.61 2.52 14.62 13.81 8.05 64.11zM256 375.5c-13.25 0-24 10.75-24 24s10.75 24 24 24 24-10.75 24-24-10.75-24-24-24zm0 38c-7.72 0-14-6.28-14-14s6.28-14 14-14 14 6.28 14 14-6.28 14-14 14z'/></symbol>
	<symbol id='eye' viewBox='0 0 576 512'><path d="M572.52 241.4C518.29 135.59 410.93 64 288 64S57.68 135.64 3.48 241.41a32.35 32.35 0 0 0 0 29.19C57.71 376.41 165.07 448 288 448s230.32-71.64 284.52-177.41a32.35 32.35 0 0 0 0-29.19zM288 400a144 144 0 1 1 144-144 143.93 143.93 0 0 1-144 144zm0-240a95.31 95.31 0 0 0-25.31 3.79 47.85 47.85 0 0 1-66.9 66.9A95.78 95.78 0 1 0 288 160z"/></symbol>
	<symbol id='brand' viewBox='0 0 1280 1280'><path d="M640 44.5C311.1 44.5 44.5 311.1 44.5 640s266.6 595.5 595.5 595.5 595.5-266.6 595.5-595.5S968.9 44.5 640 44.5zM1010 628c-3.7 36.6-64.5 56.2-60 67 2.9 7 27.7-2.2 35 9 5.6 8.5-1.1 25.7-12 35-13.7 11.6-26.1 3.9-34 13-10.5 11.9 4 33.3 9 67 3.7 24.9-2 27.7-4 68-4 79.4 15.7 112.5-6 132-7.4 6.6-9.7 2.8-33 11-41.4 14.5-46.9 30.9-81 47-41.9 19.8-81.4 17.7-93 17-22.7-1.5-39.1-7.3-72-19-65.6-23.3-64.2-34.8-107-46-51.1-13.4-71.7-1.8-90-22-11.9-13-9-24.2-15-64-7.8-52.2-26.5-124.6-46-125-10.9-.2-13.3 22-27 23-15.4 1.1-28.5-25.9-47-63-50.7-101.6-46.7-89.3-51-101-18-49.1-21.8-86.6-28-153-8-85.6-12.1-128.4 0-162 19.6-54.7 59-86.9 103-123 47.6-39 93.4-61.8 125-75 41.4-19.5 77-25.4 102-27 50.5-3.3 90.3 9.8 170 36 46 15.1 69.7 23.1 100 42 31 19.3 60 37.4 79 71 29 51.3-3.6 70.6 24 134 21.2 48.6 51.8 63.5 48 104-1.6 16.7-7.8 24.5-6 46 2.7 32.7 19 38.4 17 58z" stroke="#fff" stroke-width="2" stroke-miterlimit="10"/><path d="M535.1 520.9c-3.9 4.9-26.5 34.2-20.5 74.4.5 3.1 8.4 51.1 51.2 70.7 42.1 19.4 92.8.9 114.5-31.6 14.8-22.3 13.7-47.6 12.9-64.8-.8-18.6-1.9-42.1-16.6-58.9-29.3-33.5-106.6-33.5-141.5 10.2zM832.9 505.1c-6.6 5-35.3 26.9-36.3 61.4-1.2 41.4 38.2 71.2 67.9 81.9 6 2.2 54.6 20.2 81.9-6.5 10-9.8 20.7-29.1 17.4-47-1.4-7.7-4.9-12.1-5.8-24.7-.8-10.8 1.2-13.9.5-23.6-1.1-13.4-6.4-23.4-8.4-27-.9-1.7-11.8-21-33.5-30.4-39.3-17.1-80.1 13.1-83.7 15.9zM756.6 600.9c-4.3 1.5-11.4 5.2-21.4 21.4-7.3 11.8-23.3 37.7-20.5 74.4 1.4 17.6 2.7 35.3 16.8 48.4 19.9 18.5 49.2 13 56.8 11.2 6.9-1.6 28.5-6.7 39.1-25.1 9.2-16 3-35.8-9.3-75.4-11.7-37.5-20.7-45.3-27-49.3-3.2-2-18.8-11.2-34.5-5.6z"/><path d="M431.9 755.4c10.6-14.3 45.4-4.6 48.4-3.7 17.5 5 27 5 33.5 13 7.4 9.2 4.9 18.7 14.9 25.4 4.8 3.2 6.6 1.8 14 6.7 7.7 5.1 12 10.7 13.3 12.6 3.1 4.3 3.8 6.9 5.7 10.7 2.8 5.5 6.2 9.5 26.5 27.1 9.9 8.6 14.8 12.8 15.8 13.3 18.6 9.3 39.3 1.1 41.9 0 11.8-4.9 11.4-10.2 24.2-15.8 8.9-3.9 17.8-4.2 35.4-4.7 30.6-.8 34.1 3.3 50.2-.9 6.4-1.7 10.1-3.5 22.3-6.5 14.2-3.5 16.3-2.9 22.3-4.7 20.6-6.1 32.7-24.6 37.2-31.6 5.6-8.7 4.8-10.7 14-36.3 16.4-45.5 23.3-50.6 28.8-52.4 9-3 20.8.1 24.8 6.8 3.1 5.3.6 11.3-1.9 20.5-3.5 13.3-3.3 27.3-5.3 40.9-7 48.4-7.3 50.7-10.2 54.9-6.8 9.9-15.7 14.7-33.5 24.2-15.9 8.5-32.2 13.9-64.2 24.2-13.6 4.4-13.5 3.7-32.6 10.2-4.1 1.4-23.9 8.1-40 13-20.4 6.2-30.6 9.4-40.9 11.2-13.1 2.3-37.2 6.2-66.1-.9-4.9-1.2-22.4-5.8-41.9-17.7-3.9-2.4-2.3-1.7-31.6-23.3-17.1-12.6-23.5-17.2-33.5-22.3-6.5-3.4-12.6-6.5-21.4-9.3-19.2-6.1-24.6-2-32.6-8.4-5-4-7.7-11.4-13-26.1-2.9-7.9-5.4-15.1-6.5-25.1-1.3-12.6-2-19.6 2-25zM700.8 237.1c-13 17.3 20.7 61.2 14 66.1-1.1.8-2.4 0-5.6-.9-9.6-2.8-15-.8-30.7.9-25.5 2.9-31.8 0-35.4 5.6-2.4 3.7-2.5 9.3 0 13 5 7.5 17 2.2 34.4 6.5 0 0 17.3 4.3 30.7 17.7 11.4 11.3 14.8 24.3 18.6 39.1 7 27.4 2.2 37.2 8.4 76.3 4.9 30.7 9.3 34 12.1 34.4 5.4.9 12.2-7.7 14.9-15.8 4.2-12.5-2.6-20.3-7.4-40-4.7-19.3.4-17.9-3.7-49.3-3.7-28.5-8.3-33.5-3.7-43.7 7.2-16.1 26.6-21.7 28.8-22.3 18-5 31.1 3.2 32.6 0 1.9-4.2-17.9-24.3-40.9-24.2-13.9.1-21.5 7.5-27.9 2.8-2.9-2.1-3.7-5.3-5.6-26.1-2-22.2-1.9-26.4-5.6-32.6-.6-1-8.7-14.1-18.6-13-5.6.5-9.1 5.1-9.4 5.5z"/><g><path d="M323.9 314.3c-14.3 21.5-38.1 57.2-40.9 107.9-1 18.5-4.9 87 46.5 132.1 31.2 27.4 85.9 48.8 123.8 28.8 34.4-18.2 18.7-51.4 67.9-105.2 25.9-28.3 40.6-30.2 65.1-65.1 15.5-22.1 28.9-41.6 27.9-67-1.1-29.3-20.3-38.2-14.9-57.7 7.6-27.7 51.4-28.5 52.1-44.7.8-16.9-46.1-37-90.3-42.8-81.8-10.7-146.6 28.7-163.8 40-11.7 8-45.1 31.3-73.4 73.7zM819 1015c10.7 3.2 15.8-10.5 39.1-20.5 22.4-9.6 35.3-4.3 44.7-16.8 4.1-5.5 5.3-11.4 6.5-17.7 2.2-11.2.4-18.7-1.9-33.5-2.9-18.7-4.3-28-4.7-38.2-.8-25.6 5.5-35.7 0-40-5.9-4.6-16.9 4.2-37.2 14-46.2 22.2-62.2 11.8-77.2 30.7-16.1 20.2-10.9 48.6-10.2 52.1 2.1 10.7 4.5 8.1 25.1 47.5 8.3 16 10.1 20.8 15.8 22.4z"/></g></symbol>
	<symbol id='external-link' viewBox='0 0 512 512'><path d="M432,320H400a16,16,0,0,0-16,16V448H64V128H208a16,16,0,0,0,16-16V80a16,16,0,0,0-16-16H48A48,48,0,0,0,0,112V464a48,48,0,0,0,48,48H400a48,48,0,0,0,48-48V336A16,16,0,0,0,432,320ZM488,0h-128c-21.37,0-32.05,25.91-17,41l35.73,35.73L135,320.37a24,24,0,0,0,0,34L157.67,377a24,24,0,0,0,34,0L435.28,133.32,471,169c15,15,41,4.5,41-17V24A24,24,0,0,0,488,0Z"/></symbol>
	<symbol id='calendar' viewBox='0 0 448 512'><path d="M400 64h-48V12c0-6.6-5.4-12-12-12h-40c-6.6 0-12 5.4-12 12v52H160V12c0-6.6-5.4-12-12-12h-40c-6.6 0-12 5.4-12 12v52H48C21.5 64 0 85.5 0 112v352c0 26.5 21.5 48 48 48h352c26.5 0 48-21.5 48-48V112c0-26.5-21.5-48-48-48zm-6 400H54c-3.3 0-6-2.7-6-6V160h352v298c0 3.3-2.7 6-6 6z"/></symbol>
	<symbol id='user' viewBox='0 0 448 512'><path d="M313.6 304c-28.7 0-42.5 16-89.6 16-47.1 0-60.8-16-89.6-16C60.2 304 0 364.2 0 438.4V464c0 26.5 21.5 48 48 48h352c26.5 0 48-21.5 48-48v-25.6c0-74.2-60.2-134.4-134.4-134.4zM400 464H48v-25.6c0-47.6 38.8-86.4 86.4-86.4 14.6 0 38.3 16 89.6 16 51.7 0 74.9-16 89.6-16 47.6 0 86.4 38.8 86.4 86.4V464zM224 288c79.5 0 144-64.5 144-144S303.5 0 224 0 80 64.5 80 144s64.5 144 144 144zm0-240c52.9 0 96 43.1 96 96s-43.1 96-96 96-96-43.1-96-96 43.1-96 96-96z"/></symbol>
	<symbol id='hash' viewBox='0 0 448 512'><path d="M446.2 270.4c-6.2-19-26.9-29.1-46-22.9l-45.4 15.1-30.3-90 45.4-15.1c19.1-6.2 29.1-26.8 23-45.9-6.2-19-26.9-29.1-46-22.9l-45.4 15.1-15.7-47c-6.2-19-26.9-29.1-46-22.9-19.1 6.2-29.1 26.8-23 45.9l15.7 47-93.4 31.2-15.7-47c-6.2-19-26.9-29.1-46-22.9-19.1 6.2-29.1 26.8-23 45.9l15.7 47-45.3 15c-19.1 6.2-29.1 26.8-23 45.9 5 14.5 19.1 24 33.6 24.6 6.8 1 12-1.6 57.7-16.8l30.3 90L78 354.8c-19 6.2-29.1 26.9-23 45.9 5 14.5 19.1 24 33.6 24.6 6.8 1 12-1.6 57.7-16.8l15.7 47c5.9 16.9 24.7 29 46 22.9 19.1-6.2 29.1-26.8 23-45.9l-15.7-47 93.6-31.3 15.7 47c5.9 16.9 24.7 29 46 22.9 19.1-6.2 29.1-26.8 23-45.9l-15.7-47 45.4-15.1c19-6 29.1-26.7 22.9-45.7zm-254.1 47.2l-30.3-90.2 93.5-31.3 30.3 90.2-93.5 31.3z"/></symbol>
	<symbol id='description' viewBox='0 0 1000 1000'><path d="M763.8 990H236.2c-83.3 0-150.8-67.5-150.8-150.8V311.5c0-83.3 67.5-150.8 150.8-150.8h75.4V85.4h82.3C409.4 41.5 450.8 10 500 10s90.6 31.5 106.1 75.4h82.3v75.4h75.4c83.3 0 150.8 67.5 150.8 150.8v527.7c0 83.2-67.5 150.7-150.8 150.7zm-113-829.2H537.7V85.4h-75.4v75.4h-113v75.4H650.8v-75.4zm188.4 150.7c0-41.6-33.7-75.4-75.4-75.4h-75.4v75.4H311.5v-75.4h-75.4c-41.6 0-75.4 33.8-75.4 75.4v527.7c0 41.6 33.8 75.4 75.4 75.4h527.7c41.7 0 75.4-33.7 75.4-75.4V311.5zm-490 452.3h414.6v75.4H349.2v-75.4zm0-188.4h414.6v75.4H349.2v-75.4zm0-188.5h414.6v75.4H349.2v-75.4zm-113 376.9h75.4v75.4h-75.4v-75.4zm0-188.4h75.4v75.4h-75.4v-75.4zm0-188.5h75.4v75.4h-75.4v-75.4z"/></symbol>
	<symbol id='edit' viewBox='0 0 576 512'><path d="M402.6 83.2l90.2 90.2c3.8 3.8 3.8 10 0 13.8L274.4 405.6l-92.8 10.3c-12.4 1.4-22.9-9.1-21.5-21.5l10.3-92.8L388.8 83.2c3.8-3.8 10-3.8 13.8 0zm162-22.9l-48.8-48.8c-15.2-15.2-39.9-15.2-55.2 0l-35.4 35.4c-3.8 3.8-3.8 10 0 13.8l90.2 90.2c3.8 3.8 10 3.8 13.8 0l35.4-35.4c15.2-15.3 15.2-40 0-55.2zM384 346.2V448H64V128h229.8c3.2 0 6.2-1.3 8.5-3.5l40-40c7.6-7.6 2.2-20.5-8.5-20.5H48C21.5 64 0 85.5 0 112v352c0 26.5 21.5 48 48 48h352c26.5 0 48-21.5 48-48V306.2c0-10.7-12.9-16-20.5-8.5l-40 40c-2.2 2.3-3.5 5.3-3.5 8.5z"/></symbol>
</svg>